<svg width="40" height="40" viewBox="0 0 40 40" fill="none" xmlns="http://www.w3.org/2000/svg">
<path fill-rule="evenodd" clip-rule="evenodd" d="M39.937 19.9685C39.937 8.95804 30.979 0 19.9685 0C8.9581 0 5.34058e-05 8.95804 5.34058e-05 19.9685C5.34058e-05 30.9789 8.9581 39.937 19.9685 39.937C30.979 39.937 39.937 30.9789 39.937 19.9685ZM12.1644 35.5788C17.027 33.1766 22.9099 33.1766 27.7725 35.5788C25.4201 36.7599 22.7752 37.441 19.9685 37.441C17.1619 37.441 14.5168 36.7599 12.1644 35.5788ZM9.72317 34.0914C15.9405 30.3772 23.9966 30.3772 30.2139 34.0914C34.5838 30.9125 37.441 25.7739 37.441 19.9685H32.4489V17.4725H37.2417C36.7101 13.7809 35.0306 10.4614 32.5638 7.89015L29.6761 10.7778L27.9114 9.01297L30.7086 6.21572C28.0506 4.13544 24.7822 2.81319 21.2166 2.55942V6.24029H18.7205V2.55935C15.1549 2.81319 11.8865 4.13536 9.22846 6.21565L12.0257 9.0129L10.2609 10.7777L7.37332 7.89007C4.90651 10.4614 3.22701 13.7809 2.69535 17.4724H7.48817V19.9685H2.49607C2.49614 25.7739 5.35324 30.9125 9.72317 34.0914ZM21.1568 10.8508C21.7918 12.8288 24.9606 22.8058 24.9606 24.9606C24.9606 27.7138 22.7217 29.9527 19.9685 29.9527C17.2153 29.9527 14.9764 27.7138 14.9764 24.9606C14.9764 22.8058 18.1453 12.8288 18.7803 10.8508C19.1117 9.81725 20.8253 9.81725 21.1568 10.8508ZM19.9685 27.4567C21.3445 27.4567 22.4646 26.3366 22.4646 24.9606C22.4646 23.9404 21.2019 19.4651 19.9685 15.4175C18.7351 19.4651 17.4724 23.9404 17.4724 24.9606C17.4724 26.3366 18.5925 27.4567 19.9685 27.4567Z" fill="#2BD0D0"/>
</svg>
