<svg width="40" height="40" viewBox="0 0 40 40" fill="none" xmlns="http://www.w3.org/2000/svg">
<path fill-rule="evenodd" clip-rule="evenodd" d="M31.6245 17.7637C32.2571 18.3737 33.1165 18.75 34.0625 18.75C36.001 18.75 37.5781 17.1729 37.5781 15.2344C37.5781 13.2959 36.001 11.7188 34.0625 11.7188C32.124 11.7188 30.5469 13.2959 30.5469 15.2344C30.5469 15.3815 30.5569 15.5258 30.5746 15.668L27.1255 17.3926C26.4929 16.7825 25.6335 16.4062 24.6875 16.4062C24.1455 16.4062 23.6316 16.5298 23.1726 16.7499L18.4845 12.0618C18.7045 11.6028 18.8281 11.0889 18.8281 10.5469C18.8281 8.6084 17.251 7.03125 15.3125 7.03125C14.5926 7.03125 13.923 7.24884 13.3652 7.62146L9.2923 4.56696C9.39667 4.23492 9.45312 3.88184 9.45312 3.51562C9.45312 1.57715 7.87598 0 5.9375 0C3.99902 0 2.42188 1.57715 2.42188 3.51562C2.42188 5.4541 3.99902 7.03125 5.9375 7.03125C6.65741 7.03125 7.32697 6.81366 7.88483 6.44104L11.9577 9.49554C11.8533 9.82758 11.7969 10.1807 11.7969 10.5469C11.7969 12.4854 13.374 14.0625 15.3125 14.0625C15.8545 14.0625 16.3684 13.9389 16.8274 13.7189L21.5155 18.407C21.2955 18.866 21.1719 19.3799 21.1719 19.9219C21.1719 21.8604 22.749 23.4375 24.6875 23.4375C26.626 23.4375 28.2031 21.8604 28.2031 19.9219C28.2031 19.7748 28.1931 19.6304 28.1754 19.4882L31.6245 17.7637ZM4.76562 3.51562C4.76562 2.86957 5.29144 2.34375 5.9375 2.34375C6.58356 2.34375 7.10938 2.86957 7.10938 3.51562C7.10938 4.16168 6.58356 4.6875 5.9375 4.6875C5.29144 4.6875 4.76562 4.16168 4.76562 3.51562ZM15.3125 9.375C14.6664 9.375 14.1406 9.90082 14.1406 10.5469C14.1406 11.1929 14.6664 11.7188 15.3125 11.7188C15.9586 11.7188 16.4844 11.1929 16.4844 10.5469C16.4844 9.90082 15.9586 9.375 15.3125 9.375ZM23.5156 19.9219C23.5156 19.2758 24.0414 18.75 24.6875 18.75C25.3336 18.75 25.8594 19.2758 25.8594 19.9219C25.8594 20.5679 25.3336 21.0938 24.6875 21.0938C24.0414 21.0938 23.5156 20.5679 23.5156 19.9219ZM34.0625 14.0625C33.4164 14.0625 32.8906 14.5883 32.8906 15.2344C32.8906 15.8804 33.4164 16.4062 34.0625 16.4062C34.7086 16.4062 35.2344 15.8804 35.2344 15.2344C35.2344 14.5883 34.7086 14.0625 34.0625 14.0625ZM2.42188 37.6562H1.17188C0.524597 37.6562 0 38.1808 0 38.8281C0 39.4754 0.524597 40 1.17188 40H38.8281C39.4754 40 40 39.4754 40 38.8281C40 38.1808 39.4754 37.6562 38.8281 37.6562H37.5781V24.6094C37.5781 23.9621 37.0535 23.4375 36.4062 23.4375H31.7188C31.0715 23.4375 30.5469 23.9621 30.5469 24.6094V37.6562H28.2031V29.2969C28.2031 28.6496 27.6785 28.125 27.0312 28.125H22.3438C21.6965 28.125 21.1719 28.6496 21.1719 29.2969V37.6562H18.8281V19.9219C18.8281 19.2746 18.3035 18.75 17.6562 18.75H12.9688C12.3215 18.75 11.7969 19.2746 11.7969 19.9219V37.6562H9.45312V12.8906C9.45312 12.2433 8.92853 11.7188 8.28125 11.7188H3.59375C2.94647 11.7188 2.42188 12.2433 2.42188 12.8906V37.6562ZM4.76562 37.6562V14.0625H7.10938V37.6562H4.76562ZM16.4844 21.0938H14.1406V37.6562H16.4844V21.0938ZM23.5156 37.6562V30.4688H25.8594V37.6562H23.5156ZM35.2344 25.7812H32.8906V37.6562H35.2344V25.7812Z" fill="#2BD0D0"/>
</svg>
